<svg id="visual" viewBox="0 0 900 600" width="900" height="600" xmlns="http://www.w3.org/2000/svg" xmlns:xlink="http://www.w3.org/1999/xlink" version="1.1"><path d="M0 429L30 411.5C60 394 120 359 180 345.5C240 332 300 340 360 349C420 358 480 368 540 386C600 404 660 430 720 417C780 404 840 352 870 326L900 300L900 0L870 0C840 0 780 0 720 0C660 0 600 0 540 0C480 0 420 0 360 0C300 0 240 0 180 0C120 0 60 0 30 0L0 0Z" fill="#00211b"></path><path d="M0 288L30 260.3C60 232.7 120 177.3 180 178.8C240 180.3 300 238.7 360 254.7C420 270.7 480 244.3 540 244.3C600 244.3 660 270.7 720 261.3C780 252 840 207 870 184.5L900 162L900 0L870 0C840 0 780 0 720 0C660 0 600 0 540 0C480 0 420 0 360 0C300 0 240 0 180 0C120 0 60 0 30 0L0 0Z" fill="#154135"></path></svg>