<svg id="visual" viewBox="0 0 900 600" width="900" height="600" xmlns="http://www.w3.org/2000/svg" xmlns:xlink="http://www.w3.org/1999/xlink" version="1.1"><path d="M0 226L21.5 222.2C43 218.3 86 210.7 128.8 198.7C171.7 186.7 214.3 170.3 257.2 175.2C300 180 343 206 385.8 208.5C428.7 211 471.3 190 514.2 191.3C557 192.7 600 216.3 642.8 218.2C685.7 220 728.3 200 771.2 192C814 184 857 188 878.5 190L900 192L900 0L878.5 0C857 0 814 0 771.2 0C728.3 0 685.7 0 642.8 0C600 0 557 0 514.2 0C471.3 0 428.7 0 385.8 0C343 0 300 0 257.2 0C214.3 0 171.7 0 128.8 0C86 0 43 0 21.5 0L0 0Z" fill="#31654f"></path><path d="M0 107L21.5 104.2C43 101.3 86 95.7 128.8 94.8C171.7 94 214.3 98 257.2 111.7C300 125.3 343 148.7 385.8 148.2C428.7 147.7 471.3 123.3 514.2 123.7C557 124 600 149 642.8 150.7C685.7 152.3 728.3 130.7 771.2 121.5C814 112.3 857 115.7 878.5 117.3L900 119L900 0L878.5 0C857 0 814 0 771.2 0C728.3 0 685.7 0 642.8 0C600 0 557 0 514.2 0C471.3 0 428.7 0 385.8 0C343 0 300 0 257.2 0C214.3 0 171.7 0 128.8 0C86 0 43 0 21.5 0L0 0Z" fill="#629d76"></path><path d="M0 44L21.5 44.3C43 44.7 86 45.3 128.8 54.2C171.7 63 214.3 80 257.2 79.2C300 78.3 343 59.7 385.8 60C428.7 60.3 471.3 79.7 514.2 81.8C557 84 600 69 642.8 59.5C685.7 50 728.3 46 771.2 44.8C814 43.7 857 45.3 878.5 46.2L900 47L900 0L878.5 0C857 0 814 0 771.2 0C728.3 0 685.7 0 642.8 0C600 0 557 0 514.2 0C471.3 0 428.7 0 385.8 0C343 0 300 0 257.2 0C214.3 0 171.7 0 128.8 0C86 0 43 0 21.5 0L0 0Z" fill="#9cd89c"></path></svg>