<svg id="visual" viewBox="0 0 900 600" width="900" height="600" xmlns="http://www.w3.org/2000/svg" xmlns:xlink="http://www.w3.org/1999/xlink" version="1.1"><path d="M0 377L21.5 377.8C43 378.7 86 380.3 128.8 373.8C171.7 367.3 214.3 352.7 257.2 336.5C300 320.3 343 302.7 385.8 302.2C428.7 301.7 471.3 318.3 514.2 327.3C557 336.3 600 337.7 642.8 340.7C685.7 343.7 728.3 348.3 771.2 350.2C814 352 857 351 878.5 350.5L900 350L900 601L878.5 601C857 601 814 601 771.2 601C728.3 601 685.7 601 642.8 601C600 601 557 601 514.2 601C471.3 601 428.7 601 385.8 601C343 601 300 601 257.2 601C214.3 601 171.7 601 128.8 601C86 601 43 601 21.5 601L0 601Z" fill="#021d32"></path><path d="M0 333L21.5 344.5C43 356 86 379 128.8 394.8C171.7 410.7 214.3 419.3 257.2 406.5C300 393.7 343 359.3 385.8 344.3C428.7 329.3 471.3 333.7 514.2 345C557 356.3 600 374.7 642.8 374.3C685.7 374 728.3 355 771.2 352.2C814 349.3 857 362.7 878.5 369.3L900 376L900 601L878.5 601C857 601 814 601 771.2 601C728.3 601 685.7 601 642.8 601C600 601 557 601 514.2 601C471.3 601 428.7 601 385.8 601C343 601 300 601 257.2 601C214.3 601 171.7 601 128.8 601C86 601 43 601 21.5 601L0 601Z" fill="#0a3648"></path><path d="M0 402L21.5 398.8C43 395.7 86 389.3 128.8 382.5C171.7 375.7 214.3 368.3 257.2 375.3C300 382.3 343 403.7 385.8 419.7C428.7 435.7 471.3 446.3 514.2 439.7C557 433 600 409 642.8 390.5C685.7 372 728.3 359 771.2 360C814 361 857 376 878.5 383.5L900 391L900 601L878.5 601C857 601 814 601 771.2 601C728.3 601 685.7 601 642.8 601C600 601 557 601 514.2 601C471.3 601 428.7 601 385.8 601C343 601 300 601 257.2 601C214.3 601 171.7 601 128.8 601C86 601 43 601 21.5 601L0 601Z" fill="#1f505b"></path><path d="M0 419L21.5 424.5C43 430 86 441 128.8 450.8C171.7 460.7 214.3 469.3 257.2 461.5C300 453.7 343 429.3 385.8 422.2C428.7 415 471.3 425 514.2 437.8C557 450.7 600 466.3 642.8 471.8C685.7 477.3 728.3 472.7 771.2 460.3C814 448 857 428 878.5 418L900 408L900 601L878.5 601C857 601 814 601 771.2 601C728.3 601 685.7 601 642.8 601C600 601 557 601 514.2 601C471.3 601 428.7 601 385.8 601C343 601 300 601 257.2 601C214.3 601 171.7 601 128.8 601C86 601 43 601 21.5 601L0 601Z" fill="#3b6b6c"></path><path d="M0 455L21.5 452.8C43 450.7 86 446.3 128.8 441.3C171.7 436.3 214.3 430.7 257.2 435.5C300 440.3 343 455.7 385.8 467C428.7 478.3 471.3 485.7 514.2 481C557 476.3 600 459.7 642.8 455.2C685.7 450.7 728.3 458.3 771.2 455.5C814 452.7 857 439.3 878.5 432.7L900 426L900 601L878.5 601C857 601 814 601 771.2 601C728.3 601 685.7 601 642.8 601C600 601 557 601 514.2 601C471.3 601 428.7 601 385.8 601C343 601 300 601 257.2 601C214.3 601 171.7 601 128.8 601C86 601 43 601 21.5 601L0 601Z" fill="#5c877c"></path><path d="M0 465L21.5 467.3C43 469.7 86 474.3 128.8 478.2C171.7 482 214.3 485 257.2 490.5C300 496 343 504 385.8 499.2C428.7 494.3 471.3 476.7 514.2 479.3C557 482 600 505 642.8 515.8C685.7 526.7 728.3 525.3 771.2 525.8C814 526.3 857 528.7 878.5 529.8L900 531L900 601L878.5 601C857 601 814 601 771.2 601C728.3 601 685.7 601 642.8 601C600 601 557 601 514.2 601C471.3 601 428.7 601 385.8 601C343 601 300 601 257.2 601C214.3 601 171.7 601 128.8 601C86 601 43 601 21.5 601L0 601Z" fill="#82a18c"></path><path d="M0 546L21.5 543.2C43 540.3 86 534.7 128.8 536.3C171.7 538 214.3 547 257.2 546C300 545 343 534 385.8 524.2C428.7 514.3 471.3 505.7 514.2 506.7C557 507.7 600 518.3 642.8 525.7C685.7 533 728.3 537 771.2 542.7C814 548.3 857 555.7 878.5 559.3L900 563L900 601L878.5 601C857 601 814 601 771.2 601C728.3 601 685.7 601 642.8 601C600 601 557 601 514.2 601C471.3 601 428.7 601 385.8 601C343 601 300 601 257.2 601C214.3 601 171.7 601 128.8 601C86 601 43 601 21.5 601L0 601Z" fill="#abbc9e"></path><path d="M0 539L21.5 543.5C43 548 86 557 128.8 564.5C171.7 572 214.3 578 257.2 578.7C300 579.3 343 574.7 385.8 575.2C428.7 575.7 471.3 581.3 514.2 579.8C557 578.3 600 569.7 642.8 560.8C685.7 552 728.3 543 771.2 546.7C814 550.3 857 566.7 878.5 574.8L900 583L900 601L878.5 601C857 601 814 601 771.2 601C728.3 601 685.7 601 642.8 601C600 601 557 601 514.2 601C471.3 601 428.7 601 385.8 601C343 601 300 601 257.2 601C214.3 601 171.7 601 128.8 601C86 601 43 601 21.5 601L0 601Z" fill="#d6d6b5"></path></svg>