<svg id="visual" viewBox="0 0 900 600" width="900" height="600" xmlns="http://www.w3.org/2000/svg" xmlns:xlink="http://www.w3.org/1999/xlink" version="1.1"><path d="M0 287L16.7 282C33.3 277 66.7 267 100 251.3C133.3 235.7 166.7 214.3 200 204.2C233.3 194 266.7 195 300 200.7C333.3 206.3 366.7 216.7 400 225.5C433.3 234.3 466.7 241.7 500 241.2C533.3 240.7 566.7 232.3 600 239.5C633.3 246.7 666.7 269.3 700 276.3C733.3 283.3 766.7 274.7 800 262.2C833.3 249.7 866.7 233.3 883.3 225.2L900 217L900 0L883.3 0C866.7 0 833.3 0 800 0C766.7 0 733.3 0 700 0C666.7 0 633.3 0 600 0C566.7 0 533.3 0 500 0C466.7 0 433.3 0 400 0C366.7 0 333.3 0 300 0C266.7 0 233.3 0 200 0C166.7 0 133.3 0 100 0C66.7 0 33.3 0 16.7 0L0 0Z" fill="#00211b"></path><path d="M0 176L16.7 176.8C33.3 177.7 66.7 179.3 100 191C133.3 202.7 166.7 224.3 200 220.7C233.3 217 266.7 188 300 174.2C333.3 160.3 366.7 161.7 400 172.5C433.3 183.3 466.7 203.7 500 212.7C533.3 221.7 566.7 219.3 600 219.3C633.3 219.3 666.7 221.7 700 221.3C733.3 221 766.7 218 800 217.7C833.3 217.3 866.7 219.7 883.3 220.8L900 222L900 0L883.3 0C866.7 0 833.3 0 800 0C766.7 0 733.3 0 700 0C666.7 0 633.3 0 600 0C566.7 0 533.3 0 500 0C466.7 0 433.3 0 400 0C366.7 0 333.3 0 300 0C266.7 0 233.3 0 200 0C166.7 0 133.3 0 100 0C66.7 0 33.3 0 16.7 0L0 0Z" fill="#154135"></path><path d="M0 203L16.7 202.5C33.3 202 66.7 201 100 200.5C133.3 200 166.7 200 200 197.2C233.3 194.3 266.7 188.7 300 176C333.3 163.3 366.7 143.7 400 135C433.3 126.3 466.7 128.7 500 134.3C533.3 140 566.7 149 600 155.3C633.3 161.7 666.7 165.3 700 173C733.3 180.7 766.7 192.3 800 193C833.3 193.7 866.7 183.3 883.3 178.2L900 173L900 0L883.3 0C866.7 0 833.3 0 800 0C766.7 0 733.3 0 700 0C666.7 0 633.3 0 600 0C566.7 0 533.3 0 500 0C466.7 0 433.3 0 400 0C366.7 0 333.3 0 300 0C266.7 0 233.3 0 200 0C166.7 0 133.3 0 100 0C66.7 0 33.3 0 16.7 0L0 0Z" fill="#31654f"></path><path d="M0 90L16.7 92C33.3 94 66.7 98 100 105.3C133.3 112.7 166.7 123.3 200 121.2C233.3 119 266.7 104 300 100.3C333.3 96.7 366.7 104.3 400 116.3C433.3 128.3 466.7 144.7 500 145.3C533.3 146 566.7 131 600 128.3C633.3 125.7 666.7 135.3 700 140.5C733.3 145.7 766.7 146.3 800 144.3C833.3 142.3 866.7 137.7 883.3 135.3L900 133L900 0L883.3 0C866.7 0 833.3 0 800 0C766.7 0 733.3 0 700 0C666.7 0 633.3 0 600 0C566.7 0 533.3 0 500 0C466.7 0 433.3 0 400 0C366.7 0 333.3 0 300 0C266.7 0 233.3 0 200 0C166.7 0 133.3 0 100 0C66.7 0 33.3 0 16.7 0L0 0Z" fill="#508a69"></path><path d="M0 87L16.7 85.5C33.3 84 66.7 81 100 85C133.3 89 166.7 100 200 107C233.3 114 266.7 117 300 116.2C333.3 115.3 366.7 110.7 400 105.5C433.3 100.3 466.7 94.7 500 89.5C533.3 84.3 566.7 79.7 600 81C633.3 82.3 666.7 89.7 700 91.3C733.3 93 766.7 89 800 84C833.3 79 866.7 73 883.3 70L900 67L900 0L883.3 0C866.7 0 833.3 0 800 0C766.7 0 733.3 0 700 0C666.7 0 633.3 0 600 0C566.7 0 533.3 0 500 0C466.7 0 433.3 0 400 0C366.7 0 333.3 0 300 0C266.7 0 233.3 0 200 0C166.7 0 133.3 0 100 0C66.7 0 33.3 0 16.7 0L0 0Z" fill="#74b083"></path><path d="M0 68L16.7 66.7C33.3 65.3 66.7 62.7 100 58.3C133.3 54 166.7 48 200 49C233.3 50 266.7 58 300 58.8C333.3 59.7 366.7 53.3 400 50.2C433.3 47 466.7 47 500 46.3C533.3 45.7 566.7 44.3 600 43.8C633.3 43.3 666.7 43.7 700 42.7C733.3 41.7 766.7 39.3 800 40.8C833.3 42.3 866.7 47.7 883.3 50.3L900 53L900 0L883.3 0C866.7 0 833.3 0 800 0C766.7 0 733.3 0 700 0C666.7 0 633.3 0 600 0C566.7 0 533.3 0 500 0C466.7 0 433.3 0 400 0C366.7 0 333.3 0 300 0C266.7 0 233.3 0 200 0C166.7 0 133.3 0 100 0C66.7 0 33.3 0 16.7 0L0 0Z" fill="#9cd89c"></path></svg>